<svg xmlns="http://www.w3.org/2000/svg"><symbol id="flash-gray" viewBox="0 0 400 400"><path fill="gray" d="M157.055 0L90.798 196.319h73.619L88.344 400l201.227-240.491h-71.166L311.656 0z"/></symbol><symbol id="flash" viewBox="0 0 400 400"><path fill="#f7cf52" d="M157.055 0L90.798 196.319h73.619L88.344 400l201.227-240.491h-71.166L311.656 0z"/></symbol><symbol id="flower-gray" viewBox="0 0 512.001 512.001"><circle cx="255.999" cy="255.999" r="123.586" fill="gray"/><circle cx="255.999" cy="255.999" r="88.275" fill="gray"/><circle cx="255.999" cy="255.999" r="52.965" fill="gray"/><g fill="gray"><path d="M256 167.726a8.815 8.815 0 0 1-6.078-2.422c-18.306-17.37-29.232-47.814-29.232-81.44s10.926-64.068 29.232-81.44a8.83 8.83 0 0 1 12.156 0c18.306 17.37 29.232 47.814 29.232 81.44s-10.926 64.068-29.232 81.44a8.815 8.815 0 0 1-6.078 2.422zM256 512.001a8.815 8.815 0 0 1-6.078-2.422c-18.306-17.37-29.232-47.814-29.232-81.44s10.926-64.069 29.232-81.44a8.83 8.83 0 0 1 12.156 0c18.306 17.37 29.232 47.814 29.232 81.44s-10.926 64.069-29.232 81.44a8.82 8.82 0 0 1-6.078 2.422zM83.863 291.312c-33.625 0-64.068-10.926-81.44-29.232a8.838 8.838 0 0 1 0-12.156c17.37-18.306 47.814-29.232 81.44-29.232s64.068 10.926 81.44 29.232a8.838 8.838 0 0 1 0 12.156c-17.372 18.306-47.815 29.232-81.44 29.232zM428.137 291.312c-33.625 0-64.069-10.926-81.44-29.232a8.838 8.838 0 0 1 0-12.156c17.37-18.306 47.814-29.232 81.44-29.232s64.069 10.926 81.44 29.232a8.838 8.838 0 0 1 0 12.156c-17.371 18.306-47.814 29.232-81.44 29.232zM185.811 196.187c-24.819 0-53.267-13.707-76.495-36.94-23.785-23.776-37.582-53.034-36.915-78.254a8.824 8.824 0 0 1 8.59-8.59c25.275-.694 54.478 13.133 78.254 36.913 23.785 23.776 37.582 53.035 36.913 78.254a8.824 8.824 0 0 1-8.59 8.59 56.9 56.9 0 0 1-1.757.027zM429.25 439.626c-24.814 0-53.267-13.703-76.495-36.936-23.785-23.785-37.582-53.038-36.914-78.258a8.824 8.824 0 0 1 8.59-8.59c25.043-.733 54.474 13.129 78.258 36.913 23.78 23.78 37.578 53.034 36.909 78.254a8.824 8.824 0 0 1-8.59 8.59c-.582.018-1.172.027-1.758.027zM82.751 439.626c-.586 0-1.176-.009-1.759-.025a8.824 8.824 0 0 1-8.59-8.59c-.668-25.219 13.129-54.478 36.913-78.254 23.771-23.78 53.038-37.625 78.254-36.914a8.824 8.824 0 0 1 8.59 8.59c.668 25.219-13.129 54.478-36.913 78.254-23.224 23.232-51.681 36.939-76.495 36.939zM326.189 196.187c-.59 0-1.176-.009-1.759-.025a8.824 8.824 0 0 1-8.59-8.59c-.668-25.219 13.129-54.474 36.913-78.258 23.776-23.78 52.961-37.728 78.254-36.909a8.824 8.824 0 0 1 8.59 8.59c.668 25.219-13.129 54.474-36.909 78.254-23.231 23.231-51.683 36.938-76.499 36.938z"/></g><g fill="gray"><path d="M218.836 175.118a8.744 8.744 0 0 1-3.159-.586c-23.561-9.043-45.306-32.987-58.172-64.052-12.871-31.069-14.426-63.378-4.16-86.426 1.906-4.293 6.828-6.358 11.229-4.651 23.561 9.043 45.306 32.987 58.172 64.052 12.871 31.069 14.426 63.378 4.16 86.426a8.828 8.828 0 0 1-8.07 5.237zM350.586 493.186a8.744 8.744 0 0 1-3.159-.586c-23.561-9.043-45.306-32.987-58.172-64.052-12.871-31.069-14.426-63.38-4.16-86.426 1.906-4.293 6.831-6.358 11.229-4.651 23.561 9.043 45.306 32.987 58.172 64.052 12.871 31.069 14.426 63.38 4.16 86.426a8.828 8.828 0 0 1-8.07 5.237zM58.816 365.385c-12.78 0-24.66-2.229-34.763-6.729a8.831 8.831 0 0 1-4.651-11.229c9.043-23.561 32.987-45.306 64.052-58.172 31.064-12.875 63.378-14.422 86.426-4.16a8.831 8.831 0 0 1 4.651 11.229c-9.043 23.561-32.987 45.306-64.052 58.172-17.447 7.229-35.292 10.889-51.663 10.889zM376.884 233.635c-12.78 0-24.66-2.229-34.763-6.729a8.831 8.831 0 0 1-4.651-11.229c9.043-23.561 32.987-45.306 64.052-58.172 31.064-12.871 63.375-14.426 86.426-4.16a8.831 8.831 0 0 1 4.651 11.229c-9.043 23.561-32.987 45.306-64.052 58.172-17.448 7.23-35.293 10.889-51.663 10.889zM135.117 233.635c-16.371 0-34.216-3.659-51.663-10.888-31.064-12.866-55.009-34.612-64.052-58.172a8.831 8.831 0 0 1 4.651-11.229c23.043-10.263 55.358-8.707 86.426 4.16 31.064 12.866 55.009 34.612 64.052 58.172a8.831 8.831 0 0 1-4.651 11.229c-10.103 4.5-21.987 6.728-34.763 6.728zM453.185 365.385c-16.371 0-34.216-3.659-51.663-10.888-31.064-12.866-55.009-34.612-64.052-58.172a8.831 8.831 0 0 1 4.651-11.229c23.052-10.263 55.362-8.703 86.426 4.16 31.064 12.866 55.009 34.612 64.052 58.172a8.831 8.831 0 0 1-4.651 11.229c-10.104 4.499-21.988 6.728-34.763 6.728zM161.414 493.186a8.826 8.826 0 0 1-8.069-5.237c-10.268-23.048-8.712-55.358 4.16-86.426 12.866-31.064 34.612-55.009 58.172-64.052a8.826 8.826 0 0 1 11.229 4.651c10.268 23.048 8.712 55.358-4.16 86.426-12.866 31.064-34.612 55.009-58.172 64.052a8.861 8.861 0 0 1-3.16.586zM293.164 175.118a8.826 8.826 0 0 1-8.069-5.237c-10.268-23.048-8.712-55.358 4.16-86.426 12.866-31.064 34.612-55.009 58.172-64.052 4.384-1.689 9.314.358 11.229 4.651 10.268 23.048 8.712 55.358-4.16 86.426-12.866 31.064-34.612 55.009-58.172 64.052a8.861 8.861 0 0 1-3.16.586z"/></g><circle cx="255.999" cy="255.999" r="35.31" fill="gray"/></symbol><symbol id="flower" viewBox="0 0 512.001 512.001"><circle cx="255.999" cy="255.999" r="123.586" fill="#f5be3c"/><circle cx="255.999" cy="255.999" r="88.275" fill="#d2a53c"/><circle cx="255.999" cy="255.999" r="52.965" fill="#c3bc41"/><g fill="#ffe650"><path d="M256 167.726a8.815 8.815 0 0 1-6.078-2.422c-18.306-17.37-29.232-47.814-29.232-81.44s10.926-64.068 29.232-81.44a8.83 8.83 0 0 1 12.156 0c18.306 17.37 29.232 47.814 29.232 81.44s-10.926 64.068-29.232 81.44a8.815 8.815 0 0 1-6.078 2.422zM256 512.001a8.815 8.815 0 0 1-6.078-2.422c-18.306-17.37-29.232-47.814-29.232-81.44s10.926-64.069 29.232-81.44a8.83 8.83 0 0 1 12.156 0c18.306 17.37 29.232 47.814 29.232 81.44s-10.926 64.069-29.232 81.44a8.82 8.82 0 0 1-6.078 2.422zM83.863 291.312c-33.625 0-64.068-10.926-81.44-29.232a8.838 8.838 0 0 1 0-12.156c17.37-18.306 47.814-29.232 81.44-29.232s64.068 10.926 81.44 29.232a8.838 8.838 0 0 1 0 12.156c-17.372 18.306-47.815 29.232-81.44 29.232zM428.137 291.312c-33.625 0-64.069-10.926-81.44-29.232a8.838 8.838 0 0 1 0-12.156c17.37-18.306 47.814-29.232 81.44-29.232s64.069 10.926 81.44 29.232a8.838 8.838 0 0 1 0 12.156c-17.371 18.306-47.814 29.232-81.44 29.232zM185.811 196.187c-24.819 0-53.267-13.707-76.495-36.94-23.785-23.776-37.582-53.034-36.915-78.254a8.824 8.824 0 0 1 8.59-8.59c25.275-.694 54.478 13.133 78.254 36.913 23.785 23.776 37.582 53.035 36.913 78.254a8.824 8.824 0 0 1-8.59 8.59 56.9 56.9 0 0 1-1.757.027zM429.25 439.626c-24.814 0-53.267-13.703-76.495-36.936-23.785-23.785-37.582-53.038-36.914-78.258a8.824 8.824 0 0 1 8.59-8.59c25.043-.733 54.474 13.129 78.258 36.913 23.78 23.78 37.578 53.034 36.909 78.254a8.824 8.824 0 0 1-8.59 8.59c-.582.018-1.172.027-1.758.027zM82.751 439.626c-.586 0-1.176-.009-1.759-.025a8.824 8.824 0 0 1-8.59-8.59c-.668-25.219 13.129-54.478 36.913-78.254 23.771-23.78 53.038-37.625 78.254-36.914a8.824 8.824 0 0 1 8.59 8.59c.668 25.219-13.129 54.478-36.913 78.254-23.224 23.232-51.681 36.939-76.495 36.939zM326.189 196.187c-.59 0-1.176-.009-1.759-.025a8.824 8.824 0 0 1-8.59-8.59c-.668-25.219 13.129-54.474 36.913-78.258 23.776-23.78 52.961-37.728 78.254-36.909a8.824 8.824 0 0 1 8.59 8.59c.668 25.219-13.129 54.474-36.909 78.254-23.231 23.231-51.683 36.938-76.499 36.938z"/></g><g fill="#ffd741"><path d="M218.836 175.118a8.744 8.744 0 0 1-3.159-.586c-23.561-9.043-45.306-32.987-58.172-64.052-12.871-31.069-14.426-63.378-4.16-86.426 1.906-4.293 6.828-6.358 11.229-4.651 23.561 9.043 45.306 32.987 58.172 64.052 12.871 31.069 14.426 63.378 4.16 86.426a8.828 8.828 0 0 1-8.07 5.237zM350.586 493.186a8.744 8.744 0 0 1-3.159-.586c-23.561-9.043-45.306-32.987-58.172-64.052-12.871-31.069-14.426-63.38-4.16-86.426 1.906-4.293 6.831-6.358 11.229-4.651 23.561 9.043 45.306 32.987 58.172 64.052 12.871 31.069 14.426 63.38 4.16 86.426a8.828 8.828 0 0 1-8.07 5.237zM58.816 365.385c-12.78 0-24.66-2.229-34.763-6.729a8.831 8.831 0 0 1-4.651-11.229c9.043-23.561 32.987-45.306 64.052-58.172 31.064-12.875 63.378-14.422 86.426-4.16a8.831 8.831 0 0 1 4.651 11.229c-9.043 23.561-32.987 45.306-64.052 58.172-17.447 7.229-35.292 10.889-51.663 10.889zM376.884 233.635c-12.78 0-24.66-2.229-34.763-6.729a8.831 8.831 0 0 1-4.651-11.229c9.043-23.561 32.987-45.306 64.052-58.172 31.064-12.871 63.375-14.426 86.426-4.16a8.831 8.831 0 0 1 4.651 11.229c-9.043 23.561-32.987 45.306-64.052 58.172-17.448 7.23-35.293 10.889-51.663 10.889zM135.117 233.635c-16.371 0-34.216-3.659-51.663-10.888-31.064-12.866-55.009-34.612-64.052-58.172a8.831 8.831 0 0 1 4.651-11.229c23.043-10.263 55.358-8.707 86.426 4.16 31.064 12.866 55.009 34.612 64.052 58.172a8.831 8.831 0 0 1-4.651 11.229c-10.103 4.5-21.987 6.728-34.763 6.728zM453.185 365.385c-16.371 0-34.216-3.659-51.663-10.888-31.064-12.866-55.009-34.612-64.052-58.172a8.831 8.831 0 0 1 4.651-11.229c23.052-10.263 55.362-8.703 86.426 4.16 31.064 12.866 55.009 34.612 64.052 58.172a8.831 8.831 0 0 1-4.651 11.229c-10.104 4.499-21.988 6.728-34.763 6.728zM161.414 493.186a8.826 8.826 0 0 1-8.069-5.237c-10.268-23.048-8.712-55.358 4.16-86.426 12.866-31.064 34.612-55.009 58.172-64.052a8.826 8.826 0 0 1 11.229 4.651c10.268 23.048 8.712 55.358-4.16 86.426-12.866 31.064-34.612 55.009-58.172 64.052a8.861 8.861 0 0 1-3.16.586zM293.164 175.118a8.826 8.826 0 0 1-8.069-5.237c-10.268-23.048-8.712-55.358 4.16-86.426 12.866-31.064 34.612-55.009 58.172-64.052 4.384-1.689 9.314.358 11.229 4.651 10.268 23.048 8.712 55.358-4.16 86.426-12.866 31.064-34.612 55.009-58.172 64.052a8.861 8.861 0 0 1-3.16.586z"/></g><circle cx="255.999" cy="255.999" r="35.31" fill="#b4d246"/></symbol><symbol id="heart-gray" viewBox="0 0 50 50"><path d="M24.85 10.126c2.018-4.783 6.628-8.125 11.99-8.125 7.223 0 12.425 6.179 13.079 13.543 0 0 .353 1.828-.424 5.119-1.058 4.482-3.545 8.464-6.898 11.503L24.85 48 7.402 32.165c-3.353-3.038-5.84-7.021-6.898-11.503-.777-3.291-.424-5.119-.424-5.119C.734 8.179 5.936 2 13.159 2c5.363 0 9.673 3.343 11.691 8.126z" fill="gray"/></symbol><symbol id="heart" viewBox="0 0 50 50"><path d="M24.85 10.126c2.018-4.783 6.628-8.125 11.99-8.125 7.223 0 12.425 6.179 13.079 13.543 0 0 .353 1.828-.424 5.119-1.058 4.482-3.545 8.464-6.898 11.503L24.85 48 7.402 32.165c-3.353-3.038-5.84-7.021-6.898-11.503-.777-3.291-.424-5.119-.424-5.119C.734 8.179 5.936 2 13.159 2c5.363 0 9.673 3.343 11.691 8.126z" fill="#d75a4a"/></symbol><symbol id="sun-gray" viewBox="0 0 438.2 438.2"><g fill="gray"><circle cx="219.097" cy="219.096" r="108.313"/><path d="M211.6 348.358h15V438.2h-15zM211.6 0h15v89.842h-15zM69.48 379.331l-10.606-10.606 63.527-63.527 10.606 10.607zM315.806 133.001l-10.607-10.606 63.527-63.527 10.606 10.607zM0 211.6h89.842v15H0zM348.358 211.6H438.2v15h-89.842zM122.397 133.003L58.871 69.477 69.477 58.87l63.527 63.527zM368.723 379.33l-63.526-63.526 10.606-10.607 63.527 63.527zM275.11 373.92l-13.457-32.497 13.859-5.74 13.457 32.498zM162.692 102.518l-13.458-32.497 13.858-5.739L176.55 96.78zM163.09 373.919l-13.858-5.74 13.457-32.497 13.859 5.74zM275.508 102.517l-13.858-5.739 13.457-32.497 13.859 5.739zM70.02 288.962l-5.74-13.858 32.498-13.458 5.739 13.859zM341.417 176.55l-5.74-13.859 32.498-13.457 5.739 13.858zM96.78 176.55l-32.498-13.458 5.739-13.858 32.497 13.457zM368.18 288.964l-32.497-13.457 5.739-13.859 32.497 13.458z"/></g></symbol><symbol id="sun" viewBox="0 0 438.2 438.2"><circle cx="219.097" cy="219.096" r="108.313" fill="#f7cf52"/><path fill="#f7cf52" d="M211.6 348.358h15V438.2h-15zM211.6 0h15v89.842h-15zM69.48 379.331l-10.606-10.606 63.527-63.527 10.606 10.607zM315.806 133.001l-10.607-10.606 63.527-63.527 10.606 10.607zM0 211.6h89.842v15H0zM348.358 211.6H438.2v15h-89.842zM122.397 133.003L58.871 69.477 69.477 58.87l63.527 63.527zM368.723 379.33l-63.526-63.526 10.606-10.607 63.527 63.527z"/><g fill="#f4581b"><path d="M275.11 373.92l-13.457-32.497 13.859-5.74 13.457 32.498zM162.692 102.518l-13.458-32.497 13.858-5.739L176.55 96.78zM163.09 373.919l-13.858-5.74 13.457-32.497 13.859 5.74zM275.508 102.517l-13.858-5.739 13.457-32.497 13.859 5.739zM70.02 288.962l-5.74-13.858 32.498-13.458 5.739 13.859zM341.417 176.55l-5.74-13.859 32.498-13.457 5.739 13.858zM96.78 176.55l-32.498-13.458 5.739-13.858 32.497 13.457zM368.18 288.964l-32.497-13.457 5.739-13.859 32.497 13.458z"/></g></symbol></svg>